HIERARCHY
ROOT Hips
{
	OFFSET 0.00000 0.00000 0.00000
	CHANNELS 6 Xposition Yposition Zposition Zrotation Yrotation Xrotation 
	JOINT LHipJoint
	{
		OFFSET 0 0 0
		CHANNELS 3 Zrotation Yrotation Xrotation
		JOINT LeftUpLeg
		{
			OFFSET 1.28858 -1.83292 1.03970
			CHANNELS 3 Zrotation Yrotation Xrotation
			JOINT LeftLeg
			{
				OFFSET 2.47846 -6.80952 0.00000
				CHANNELS 3 Zrotation Yrotation Xrotation
				JOINT LeftFoot
				{
					OFFSET 2.75274 -7.56311 0.00000
					CHANNELS 3 Zrotation Yrotation Xrotation
					JOINT LeftToeBase
					{
						OFFSET 0.12848 -0.35301 1.68223
						CHANNELS 3 Zrotation Yrotation Xrotation
						End Site
						{
							OFFSET 0.00000 -0.00000 0.87311
						}
					}
				}
			}
		}
	}
	JOINT RHipJoint
	{
		OFFSET 0 0 0
		CHANNELS 3 Zrotation Yrotation Xrotation
		JOINT RightUpLeg
		{
			OFFSET -1.31183 -1.83292 1.03970
			CHANNELS 3 Zrotation Yrotation Xrotation
			JOINT RightLeg
			{
				OFFSET -2.44740 -6.72417 0.00000
				CHANNELS 3 Zrotation Yrotation Xrotation
				JOINT RightFoot
				{
					OFFSET -2.67343 -7.34519 0.00000
					CHANNELS 3 Zrotation Yrotation Xrotation
					JOINT RightToeBase
					{
						OFFSET -0.16914 -0.46471 1.77626
						CHANNELS 3 Zrotation Yrotation Xrotation
						End Site
						{
							OFFSET -0.00000 -0.00000 0.92777
						}
					}
				}
			}
		}
	}
	JOINT LowerBack
	{
		OFFSET 0 0 0
		CHANNELS 3 Zrotation Yrotation Xrotation
		JOINT Spine
		{
			OFFSET 0.01249 2.14252 0.03842
			CHANNELS 3 Zrotation Yrotation Xrotation
			JOINT Spine1
			{
				OFFSET -0.02957 2.14199 -0.03751
				CHANNELS 3 Zrotation Yrotation Xrotation
				JOINT Neck
				{
					OFFSET 0 0 0
					CHANNELS 3 Zrotation Yrotation Xrotation
					JOINT Neck1
					{
						OFFSET -0.01678 1.65709 -0.05476
						CHANNELS 3 Zrotation Yrotation Xrotation
						JOINT Head
						{
							OFFSET 0.07912 1.58331 -0.11843
							CHANNELS 3 Zrotation Yrotation Xrotation
							End Site
							{
								OFFSET 0.03298 1.73940 -0.04271
							}
						}
					}
				}
				JOINT LeftShoulder
				{
					OFFSET 0 0 0
					CHANNELS 3 Zrotation Yrotation Xrotation
					JOINT LeftArm
					{
						OFFSET 3.39556 1.16496 0.08673
						CHANNELS 3 Zrotation Yrotation Xrotation
						JOINT LeftForeArm
						{
							OFFSET 5.23910 -0.00000 -0.00000
							CHANNELS 3 Zrotation Yrotation Xrotation
							JOINT LeftHand
							{
								OFFSET 3.31467 -0.00000 0.00000
								CHANNELS 3 Zrotation Yrotation Xrotation
								JOINT LeftFingerBase
								{
									OFFSET 0 0 0
									CHANNELS 3 Zrotation Yrotation Xrotation
									JOINT LeftHandIndex1
									{
										OFFSET 0.96590 -0.00000 0.00000
										CHANNELS 3 Zrotation Yrotation Xrotation
										End Site
										{
											OFFSET 0.77873 -0.00000 0.00000
										}
									}
								}
								JOINT LThumb
								{
									OFFSET 0 0 0
									CHANNELS 3 Zrotation Yrotation Xrotation
									End Site
									{
										OFFSET 0.79062 -0.00000 0.79062
									}
								}
							}
						}
					}
				}
				JOINT RightShoulder
				{
					OFFSET 0 0 0
					CHANNELS 3 Zrotation Yrotation Xrotation
					JOINT RightArm
					{
						OFFSET -3.27193 1.31331 0.33940
						CHANNELS 3 Zrotation Yrotation Xrotation
						JOINT RightForeArm
						{
							OFFSET -5.30252 -0.00000 0.00000
							CHANNELS 3 Zrotation Yrotation Xrotation
							JOINT RightHand
							{
								OFFSET -3.67875 -0.00000 0.00000
								CHANNELS 3 Zrotation Yrotation Xrotation
								JOINT RightFingerBase
								{
									OFFSET 0 0 0
									CHANNELS 3 Zrotation Yrotation Xrotation
									JOINT RightHandIndex1
									{
										OFFSET -0.59481 -0.00000 0.00000
										CHANNELS 3 Zrotation Yrotation Xrotation
										End Site
										{
											OFFSET -0.47955 -0.00000 0.00000
										}
									}
								}
								JOINT RThumb
								{
									OFFSET 0 0 0
									CHANNELS 3 Zrotation Yrotation Xrotation
									End Site
									{
										OFFSET -0.48687 -0.00000 0.48687
									}
								}
							}
						}
					}
				}
			}
		}
	}
}
MOTION
Frames: 10
Frame Time: .0083333
5.9101 17.9198 -23.5269 0 0 0 0 0 0 -21 0 0 0 0 0 0 0 0 0 0 0 0 0 0 21 0 0 0 0 0 0 0 0 0 0 0 0 0 0 0 0 0 0 0 0 0 0 -16 0 0 21 0 0 11 0 0 0 -8 0 0 0 0 0 0 0 0 0 0 0 0 0 0 0 0 0 0 0 0 8 0 0 0 0 0 0 0 0 0 0 0 0 0 0 0 0 0
5.9101 17.9198 -23.5269 -2.8262 78.4611 1.1813 0.0000 0.0000 0.0000 -7.5784 -2.4093 9.6121 0.0001 -0.0479 -0.1317 2.5218 -8.6740 -28.6021 6.5221 14.9159 47.0429 0.0000 0.0000 0.0000 8.3115 12.8706 5.3168 -0.0016 0.2560 -0.7034 0.3064 -23.0017 -30.3765 -0.0005 -0.1391 0.3821 2.5677 -6.0691 -4.9679 -2.0986 -8.1837 1.8589 -4.2374 -3.9720 4.0281 -6.5236 -23.5308 11.8672 13.5784 -31.9964 0.2037 4.7103 -16.3300 1.5096 -0.0000 -0.0000 0.0000 -76.8818 12.6195 23.0047 15.7133 -25.1304 -3.5233 -0.0000 0.0000 -14.7269 9.4657 -12.0073 -1.9865 -7.1250 0.0000 -0.0000 -12.3339 17.9712 8.1172 -0.0000 -0.0000 0.0000 86.2483 0.7693 38.0423 -13.8440 22.5113 -2.7681 0.0000 0.0000 0.7750 -11.6355 -43.8542 8.1193 7.1250 -0.0000 -0.0000 40.2321 -70.7129 -25.9960
5.9198 17.9270 -23.5213 -4.0080 78.6345 0.2683 0.0000 0.0000 0.0000 -7.1335 -2.0056 9.0949 0.0000 -0.0053 -0.0145 2.4140 -8.4023 -27.9706 6.3453 14.7549 46.3525 0.0000 0.0000 0.0000 8.5106 12.4041 4.9476 -0.0019 0.2821 -0.7751 0.5925 -23.6751 -29.3777 -0.0205 0.9235 -2.5383 0.9088 -6.2538 -5.1449 -0.5720 -8.3858 1.8265 -1.8313 -4.1244 4.5406 -7.4856 -23.5846 11.5866 13.2092 -32.1476 -0.1775 4.6603 -16.3961 1.5270 0.0000 -0.0000 0.0000 -79.3006 11.6464 21.3862 15.4488 -24.7676 -3.4117 -0.0000 0.0000 -13.7172 9.3527 -12.4196 -2.0287 -7.1250 0.0000 -0.0000 -12.3931 17.5696 8.2705 0.0000 -0.0000 0.0000 83.9535 0.6433 37.4824 -14.0561 22.8149 -2.8498 0.0000 0.0000 0.4537 -10.1397 -42.6927 6.9143 7.1250 -0.0000 -0.0000 39.4560 -69.3784 -24.3316
5.9239 17.9261 -23.5221 -3.4741 78.6168 0.7890 0.0000 0.0000 0.0000 -7.2536 -1.8426 9.0644 0.0000 -0.0037 -0.0100 2.3873 -8.5486 -27.8048 6.3975 14.8028 46.5568 0.0000 0.0000 0.0000 8.3626 12.3934 4.9921 -0.0018 0.2777 -0.7630 0.3545 -22.9089 -29.8985 -0.0005 -0.1418 0.3897 -1.0032 -6.3613 -4.9348 0.8073 -8.4612 1.7929 0.6048 -4.2361 4.8745 -8.2895 -23.7050 11.3977 12.7564 -32.3437 -0.8498 4.6136 -16.4883 1.4103 0.0000 -0.0000 0.0000 -81.5005 10.9063 20.4860 15.3622 -24.6483 -3.3756 -0.0000 0.0000 -12.9584 9.3396 -12.6932 -2.0697 -7.1250 0.0000 -0.0000 -12.3903 17.2998 8.3437 0.0000 -0.0000 0.0000 81.6675 0.5216 36.8713 -14.2499 23.0908 -2.9254 0.0000 0.0000 0.2442 -8.5735 -42.2915 5.7928 7.1250 -0.0000 -0.0000 40.3042 -68.5830 -24.2272
5.9231 17.9218 -23.5259 -2.8012 78.4637 1.3077 0.0000 0.0000 0.0000 -7.4733 -1.8606 9.3459 0.0000 -0.0441 -0.1213 2.4230 -8.6650 -28.0158 6.4895 14.8865 46.9160 0.0000 0.0000 0.0000 8.1549 12.0338 4.9003 -0.0019 0.2804 -0.7703 0.6744 -23.5834 -28.6104 -0.0458 1.3815 -3.7991 -4.4270 -6.3973 -4.2773 3.3499 -8.4231 1.6941 5.1407 -4.3832 5.3087 -10.0663 -23.8059 11.2561 12.1521 -32.5968 -2.2285 4.6417 -16.6007 1.1919 0.0000 -0.0000 0.0000 -85.6719 9.7490 19.4323 15.2450 -24.4863 -3.3268 -0.0000 0.0000 -11.7170 9.5108 -12.7433 -2.1164 -7.1250 0.0000 -0.0000 -12.2710 17.2413 8.2756 0.0000 -0.0000 0.0000 77.1607 0.4669 38.0365 -14.6792 23.6973 -3.0959 0.0000 -0.0000 -0.4472 -8.1720 -43.0845 5.6023 7.1250 -0.0000 -0.0000 42.1753 -69.0229 -25.8918
5.9191 17.9183 -23.5293 -0.3518 78.2438 3.5761 0.0000 0.0000 0.0000 -8.1871 -2.0183 9.6778 0.0002 -0.0931 -0.2559 2.4996 -8.5884 -28.4744 6.4899 14.8868 46.9174 0.0000 0.0000 0.0000 7.5146 12.0438 4.9260 -0.0017 0.2640 -0.7253 0.6933 -23.5281 -28.3719 -0.0611 1.5951 -4.3879 -4.9127 -6.4290 -4.0305 3.2159 -8.4419 1.6183 5.2965 -4.4023 5.1438 -10.3027 -23.5785 11.5240 12.2648 -32.3417 -2.1741 4.7322 -16.4822 1.1968 -0.0000 -0.0000 0.0000 -85.5766 9.8994 19.2630 15.4658 -24.7910 -3.4189 -0.0000 0.0000 -11.7975 9.6607 -12.4678 -2.1047 -7.1250 0.0000 -0.0000 -12.1796 17.5057 8.1387 -0.0000 -0.0000 0.0000 77.0266 0.0797 37.9980 -14.5493 23.5146 -3.0439 0.0000 -0.0000 -0.7079 -6.8764 -42.4796 4.6560 7.1250 -0.0000 -0.0000 42.3338 -68.1822 -25.2407
5.9160 17.9182 -23.5311 0.7926 78.1612 4.6590 0.0000 0.0000 0.0000 -8.5213 -2.0946 9.7624 0.0002 -0.1020 -0.2802 2.5365 -8.3686 -28.7008 6.3988 14.8039 46.5618 0.0000 0.0000 0.0000 7.2132 12.1184 4.9360 -0.0013 0.2316 -0.6363 0.5916 -23.2295 -28.6574 -0.0468 1.3966 -3.8408 -5.1500 -6.4620 -3.8998 3.1699 -8.4768 1.5620 5.3923 -4.4236 5.0440 -10.1640 -23.7454 11.5488 12.0043 -32.5432 -2.2396 4.6590 -16.5766 1.1306 -0.0000 0.0000 0.0000 -85.3765 9.9600 19.4379 15.6767 -25.0803 -3.5078 -0.0000 0.0000 -11.9352 9.6261 -12.4439 -2.0931 -7.1250 0.0000 -0.0000 -12.2043 17.5312 8.1490 -0.0000 0.0000 0.0000 77.0166 -0.7938 37.9328 -14.8039 23.8723 -3.1462 0.0000 -0.0000 -0.6707 -6.0809 -39.9669 3.9147 7.1250 -0.0000 -0.0000 38.9681 -66.0968 -21.2034
5.9212 17.9293 -23.5247 -7.1908 78.5839 -2.9794 0.0000 0.0000 0.0000 -6.3395 -1.7606 9.1824 0.0000 -0.0234 -0.0642 2.3849 -8.2740 -27.8004 6.3150 14.7268 46.2332 0.0000 0.0000 0.0000 9.3137 12.2079 5.0053 -0.0013 0.2331 -0.6403 0.5161 -23.3065 -29.3470 -0.0317 1.1499 -3.1612 -3.4881 -6.5870 -4.1063 3.6305 -8.7402 1.5587 4.9113 -4.5066 5.0114 -9.9748 -23.9612 11.3733 11.7160 -32.8047 -2.0709 4.5279 -16.6937 1.1576 0.0000 0.0000 0.0000 -85.1498 9.8853 19.7344 15.8585 -25.3284 -3.5852 -0.0000 0.0000 -12.1601 9.6849 -12.5247 -2.1195 -7.1250 0.0000 -0.0000 -12.1606 17.4482 8.1411 0.0000 0.0000 0.0000 77.0814 -0.9430 37.8324 -14.5630 23.5338 -3.0493 0.0000 -0.0000 -0.6223 -5.9044 -40.5537 3.8467 7.1250 -0.0000 -0.0000 40.0519 -66.4846 -22.2205
5.9231 17.9307 -23.5242 -7.6578 78.5900 -3.4519 0.0000 0.0000 0.0000 -6.2321 -1.7479 9.2185 0.0000 -0.0295 -0.0810 2.3689 -8.4016 -27.6984 6.3329 14.7434 46.3037 0.0000 0.0000 0.0000 9.4318 12.1264 5.0173 -0.0014 0.2433 -0.6684 0.5586 -23.4011 -29.1849 -0.0488 1.4260 -3.9218 -3.3606 -6.6654 -4.0740 3.6883 -8.8542 1.5530 4.8928 -4.5598 4.9906 -10.2267 -23.8182 11.3747 11.8135 -32.6596 -1.8372 4.5556 -16.6212 1.2672 0.0000 -0.0000 0.0000 -85.1142 9.8043 19.5116 16.0097 -25.5337 -3.6501 -0.0000 0.0000 -12.2269 9.8172 -12.4980 -2.1445 -7.1250 0.0000 -0.0000 -12.0708 17.4675 8.0730 0.0000 -0.0000 0.0000 76.9092 -1.5667 37.8557 -14.9608 24.0915 -3.2099 0.0000 -0.0000 -0.5455 -5.0871 -41.0239 3.3441 7.1250 -0.0000 -0.0000 41.6121 -66.5871 -23.3061
5.9230 17.9306 -23.5241 -7.7426 78.5698 -3.5125 0.0000 0.0000 0.0000 -6.2411 -1.8419 9.2435 0.0000 -0.0321 -0.0883 2.3814 -8.5508 -27.7689 6.3900 14.7959 46.5275 0.0000 0.0000 0.0000 9.4537 12.2022 5.0169 -0.0015 0.2534 -0.6961 0.5766 -23.4883 -29.1922 -0.0638 1.6299 -4.4838 -3.3175 -6.7372 -4.0566 3.7231 -8.9534 1.5137 4.8986 -4.6071 4.9505 -10.3533 -23.7121 11.4398 11.8267 -32.5386 -1.8323 4.5840 -16.5623 1.2674 -0.0000 0.0000 0.0000 -85.0881 9.7680 19.1148 16.1549 -25.7302 -3.7129 -0.0000 0.0000 -12.0847 9.7304 -12.5533 -2.1345 -7.1250 0.0000 -0.0000 -12.1282 17.4174 8.1268 -0.0000 0.0000 0.0000 76.7084 -1.8204 38.2583 -14.9395 24.0617 -3.2012 0.0000 -0.0000 -0.9725 -5.6957 -41.2999 3.7662 7.1250 -0.0000 -0.0000 41.4627 -66.9705 -23.5601
